<?xml version="1.0" encoding="iso-8859-1"?>
<!-- Uploaded to: SVG Repo, www.svgrepo.com, Generator: SVG Repo Mixer Tools -->
<svg fill="#000000" height="800px" width="800px" version="1.1" id="Layer_1" xmlns="http://www.w3.org/2000/svg" xmlns:xlink="http://www.w3.org/1999/xlink" 
	 viewBox="0 0 512 512" xml:space="preserve">
<g>
	<g>
		<path d="M402.27,154.433H109.731c-15.82,0-28.689,12.87-28.689,28.689v44.132c0,14.701,11.119,26.849,25.388,28.493
			c12.267,36.472,37.067,66.315,68.837,85.184L91.927,487.27c-4.52,7.938-1.75,18.038,6.188,22.559
			c7.943,4.525,18.041,1.745,22.56-6.188l84.774-148.857c11.007,3.706,22.453,6.205,34.009,7.403v133.269
			c0,9.135,7.405,16.541,16.541,16.541s16.541-7.405,16.541-16.541V362.187c11.521-1.194,22.967-3.688,34.009-7.403l84.775,148.857
			c4.52,7.94,14.621,10.707,22.559,6.188c7.938-4.52,10.708-14.621,6.188-22.559l-83.341-146.338
			c31.771-18.871,56.571-48.713,68.839-85.184c14.269-1.643,25.388-13.791,25.388-28.493v-44.132
			C430.959,167.304,418.088,154.433,402.27,154.433z M256.047,329.956c-0.016,0-0.031-0.002-0.047-0.002s-0.031,0.002-0.047,0.002
			c-50.569-0.019-94.529-30.075-113.994-74.012h228.083C350.397,300.289,306.129,329.937,256.047,329.956z M397.877,222.861
			c-5.761,0-269.083,0-283.752,0v-35.346h283.752V222.861z"/>
	</g>
</g>
<g>
	<g>
		<path d="M277.874,62.845c-3.759-11.151-13.514-16.531-18.816-20.677c-2.79-2.31-4.709-3.495-3.758-14.734
			c0.569-6.475,2.104-15.799,3.019-23.238c0.19-1.537-0.587-3.031-1.955-3.759c-1.367-0.727-3.041-0.536-4.209,0.479
			c-6.1,5.304-12.217,12.606-16.243,20.416c-5.601,11.132-7.025,22.426-1.028,33.123c5.823,10.071,16.933,14.813,18.895,17.91
			c2.065,1.837,1.548,9.783,1.32,12.474c-0.535,6.101-2.07,15.672-2.985,23.24c-0.186,1.536,0.594,3.029,1.962,3.753
			c1.368,0.725,3.041,0.531,4.207-0.486c5.647-4.924,12.006-12.087,16.28-20.382C278.983,82.175,281.227,72.171,277.874,62.845z"/>
	</g>
</g>
<g>
	<g>
		<path d="M210.94,90.466c-6.327-5.851-10.553-6.244-11.333-11.197c-0.748-4.65,0.726-13.712,1.444-18.76
			c0.195-1.245,0.746-5.198,1.146-8.808c0.114-1.029-0.408-2.023-1.319-2.513c-0.911-0.491-2.028-0.378-2.824,0.284
			c-3.027,2.518-6.343,5.832-9.246,9.584c-5.87,7.581-10.2,17.245-8.836,26.736c1.606,9.62,7.214,14.358,13.056,18.693
			c0.933,0.662,4.705,3.336,5.317,4.303c1.683,1.498,1.252,8.186,1.08,10.209c-0.473,5.402-1.895,14.036-2.607,20.409
			c-0.115,1.026,0.404,2.018,1.311,2.51c0.906,0.492,2.021,0.386,2.819-0.269c5.348-4.39,10.898-10.824,14.408-17.637
			C221.527,111.748,220.933,99.629,210.94,90.466z"/>
	</g>
</g>
<g>
	<g>
		<path d="M339.008,96.881c-3.762-6.47-9.529-9.691-13.516-12.809c-2.048-1.694-2.65-2.189-3.062-4.805
			c-0.322-2-0.235-4.644-0.014-7.254c0.507-5.778,1.921-14.099,2.633-20.361c0.117-1.028-0.401-2.023-1.311-2.516
			c-0.909-0.493-2.027-0.385-2.824,0.273c-5.282,4.359-10.822,10.733-14.368,17.609c-1.562,3.105-3.042,6.648-3.721,11.193
			c-2.904,20.12,15.976,26.833,18.347,30.577c1.683,1.498,1.252,8.186,1.08,10.209c-0.491,5.604-1.906,14.082-2.613,20.412
			c-0.115,1.026,0.404,2.018,1.311,2.509c0.906,0.493,2.021,0.386,2.818-0.269c5.334-4.377,10.891-10.805,14.414-17.64
			C342.763,114.902,343.952,105.674,339.008,96.881z"/>
	</g>
</g>
</svg>