<?xml version="1.0" encoding="iso-8859-1"?>
<!-- Uploaded to: SVG Repo, www.svgrepo.com, Generator: SVG Repo Mixer Tools -->
<svg fill="#000000" height="800px" width="800px" version="1.1" id="Layer_1" xmlns="http://www.w3.org/2000/svg" xmlns:xlink="http://www.w3.org/1999/xlink" 
	 viewBox="0 0 512 512" xml:space="preserve">
<g>
	<g>
		<path d="M495.32,478.495H367.202c-2.417-31.603-25.234-57.571-55.283-64.737V250.348c0-18.395,14.965-33.36,33.36-33.36
			c18.395,0,33.36,14.965,33.36,33.36c0,9.212,7.468,16.68,16.68,16.68s16.68-7.468,16.68-16.68c0-18.395,14.965-33.36,33.36-33.36
			c18.395,0,32.804,14.654,32.804,33.36c0,9.212,7.468,16.68,16.68,16.68s16.68-7.468,16.68-16.68
			c0-115.86-89.378-207.865-199.606-216.209V16.825c0-9.212-7.468-16.68-16.68-16.68s-16.68,7.468-16.68,16.68v17.312
			C166.448,42.663,77.841,136.378,77.841,250.348c0,9.212,7.468,16.68,16.68,16.68s16.68-7.468,16.68-16.68
			c0-18.395,15.215-33.36,33.916-33.36c18.395,0,33.36,14.965,33.36,33.36c0,9.212,7.468,16.68,16.68,16.68s16.68-7.468,16.68-16.68
			c0-18.395,14.965-33.36,33.36-33.36c18.395,0,33.472,14.965,33.472,33.36v163.37c-30.131,7.11-53.136,33.115-55.56,64.776h-32.622
			l-49.852-50.113l49.78-50.041h26.425c9.212,0,16.68-7.468,16.68-16.68s-7.468-16.569-16.68-16.569c-8.661,0-191.212,0-200.162,0
			c-9.212,0-16.68,7.357-16.68,16.569s7.468,16.68,16.68,16.68h27.121l49.78,50.041l-49.853,50.113H17.154
			c-9.212,0-16.68,7.468-16.68,16.68s7.468,16.68,16.68,16.68c24.057,0,465.264,0,478.166,0c9.212,0,16.68-7.468,16.68-16.68
			S504.532,478.495,495.32,478.495z M467.017,187.246c-6.866-2.37-14.156-3.617-21.655-3.617c-13.712,0-26.468,4.162-37.08,11.284
			c-5.269-38.422-16.96-79.517-37.655-111.73C415.072,103.428,450.078,140.997,467.017,187.246z M311.92,71.019
			c35.95,17.781,55.308,78.954,61.921,119.044c-8.664-4.121-18.346-6.436-28.561-6.436c-12.149,0-23.538,3.279-33.36,8.976V71.019z
			 M182.198,194.911c-10.612-7.121-23.368-11.284-37.08-11.284c-8.009,0-15.693,1.401-22.823,3.96
			c17.076-46.623,52.609-84.464,97.738-104.689C199.187,115.208,187.464,156.5,182.198,194.911z M278.671,192.604
			c-9.822-5.696-21.323-8.976-33.472-8.976c-10.215,0-19.897,2.314-28.561,6.435c6.602-40.023,26.1-101.272,62.033-119.044V192.604z
			 M90.857,378.341h52.504l-26.251,26.389L90.857,378.341z M90.786,478.495l26.324-26.461l26.322,26.461H90.786z M256.634,478.493
			c2.704-18.835,18.95-33.359,38.523-33.359c0.024,0,0.049,0.001,0.073,0.001c0.003,0,0.007,0,0.01,0c0.001,0,0.002,0,0.003,0
			c19.535,0.043,35.737,14.55,38.439,33.358H256.634z"/>
	</g>
</g>
</svg>